<svg width="41" height="41" viewBox="0 0 41 41" fill="none" xmlns="http://www.w3.org/2000/svg">
<path d="M0.113281 20.332C0.115634 30.2783 7.3483 38.7472 17.1717 40.306V26.1752H12.0422V20.332H17.1778V15.8839C16.9482 13.7762 17.6681 11.6756 19.1423 10.1518C20.6165 8.62803 22.6921 7.83898 24.8062 7.99868C26.3237 8.02319 27.8374 8.15834 29.3352 8.40305V13.3748H26.7796C25.8997 13.2596 25.0152 13.5501 24.3751 14.1647C23.735 14.7792 23.4087 15.6512 23.488 16.535V20.332H29.0905L28.1949 26.1772H23.488V40.306C34.1118 38.627 41.5616 28.9245 40.4403 18.2274C39.319 7.53036 30.0192 -0.416437 19.2781 0.144122C8.53707 0.704681 0.114989 9.57635 0.113281 20.332Z" fill="#729CEF"/>
</svg>
