<svg width="49" height="49" viewBox="0 0 49 49" fill="none" xmlns="http://www.w3.org/2000/svg">
<circle cx="24.3279" cy="24.3279" r="19.6721" stroke="#729CEF" stroke-width="1.31148"/>
<path d="M4.11328 24.332C4.11563 34.2783 11.3483 42.7472 21.1717 44.306V30.1752H16.0422V24.332H21.1778V19.8839C20.9482 17.7762 21.6681 15.6756 23.1423 14.1518C24.6165 12.628 26.6921 11.839 28.8062 11.9987C30.3237 12.0232 31.8374 12.1583 33.3352 12.4031V17.3748H30.7796C29.8997 17.2596 29.0152 17.5501 28.3751 18.1647C27.735 18.7792 27.4087 19.6512 27.488 20.535V24.332H33.0905L32.1949 30.1772H27.488V44.306C38.1118 42.627 45.5616 32.9245 44.4403 22.2274C43.319 11.5304 34.0192 3.58356 23.2781 4.14412C12.5371 4.70468 4.11499 13.5764 4.11328 24.332Z" fill="#729CEF"/>
</svg>
