<svg width="37" height="38" viewBox="0 0 37 38" fill="none" xmlns="http://www.w3.org/2000/svg">
<path d="M18.6432 37.4066C13.6348 37.4066 13.0443 37.3801 11.0898 37.2946C9.56563 37.2445 8.06118 36.9347 6.64123 36.3784C4.18447 35.4224 2.24181 33.479 1.28666 31.0218C0.751827 29.5967 0.463355 28.091 0.433594 26.5692C0.31958 24.6187 0.31958 23.9794 0.31958 19.0097C0.31958 13.987 0.346048 13.4006 0.433594 11.4563C0.464006 9.93646 0.752468 8.43288 1.28666 7.00973C2.24078 4.54933 4.18658 2.60426 6.64734 1.65108C8.06975 1.114 9.57372 0.824774 11.0939 0.795977C13.0382 0.686035 13.6775 0.686035 18.6432 0.686035C23.6924 0.686035 24.2726 0.712503 26.1966 0.795977C27.7207 0.825023 29.2287 1.11422 30.6554 1.65108C33.1154 2.60534 35.0609 4.55003 36.0161 7.00973C36.5599 8.45362 36.8499 9.9807 36.8732 11.5234C36.9872 13.4739 36.9872 14.1112 36.9872 19.0789C36.9872 24.0466 36.9587 24.6981 36.8732 26.6262C36.8429 28.1495 36.5537 29.6566 36.0181 31.0829C35.0605 33.5418 33.1149 35.4858 30.6554 36.4416C29.2307 36.9754 27.7259 37.2638 26.2048 37.2946C24.2604 37.4066 23.6232 37.4066 18.6432 37.4066ZM18.574 3.90896C13.594 3.90896 13.0769 3.93339 11.1326 4.02094C9.97203 4.03631 8.82272 4.25047 7.73455 4.65412C6.12767 5.269 4.85616 6.53533 4.23473 8.13968C3.82797 9.23971 3.61378 10.4016 3.60155 11.5743C3.49364 13.5472 3.49364 14.0643 3.49364 19.0097C3.49364 23.896 3.51197 24.4884 3.60155 26.4491C3.61977 27.61 3.83384 28.7595 4.23473 29.8491C4.85707 31.4524 6.12836 32.7178 7.73455 33.3327C8.82198 33.739 9.97176 33.9532 11.1326 33.9658C13.1034 34.0798 13.6225 34.0798 18.574 34.0798C23.5682 34.0798 24.0853 34.0554 26.0134 33.9658C27.1747 33.9517 28.3249 33.7375 29.4134 33.3327C31.0106 32.7125 32.2738 31.45 32.8949 29.8532C33.3009 28.7522 33.5151 27.5898 33.5281 26.4165H33.5505C33.6381 24.4701 33.6381 23.9509 33.6381 18.9771C33.6381 14.0032 33.6157 13.48 33.5281 11.5357C33.5099 10.3761 33.2958 9.22793 32.8949 8.13968C32.2752 6.54059 31.0118 5.27568 29.4134 4.65412C28.3251 4.24844 27.1748 4.03421 26.0134 4.02094C24.0446 3.90896 23.5295 3.90896 18.574 3.90896ZM18.6432 28.4138C14.836 28.4162 11.4022 26.1248 9.94328 22.6081C8.4844 19.0915 9.28779 15.0423 11.9788 12.349C14.6697 9.65564 18.7183 8.84875 22.2362 10.3046C25.7541 11.7604 28.0485 15.1922 28.0494 18.9995C28.0438 24.1934 23.8371 28.4037 18.6432 28.4138ZM18.6432 12.8875C15.2699 12.8875 12.5353 15.6221 12.5353 18.9954C12.5353 22.3687 15.2699 25.1033 18.6432 25.1033C22.0165 25.1033 24.7511 22.3687 24.7511 18.9954C24.7433 15.6254 22.0133 12.8954 18.6432 12.8875ZM28.4158 11.4359C27.2053 11.4314 26.227 10.4476 26.2292 9.23708C26.2315 8.02654 27.2134 7.04639 28.424 7.04639C29.6345 7.04639 30.6165 8.02652 30.6187 9.23707C30.6193 9.82111 30.3872 10.3813 29.9739 10.7939C29.5605 11.2065 28.9999 11.4375 28.4158 11.4359Z" fill="#F2F2F3"/>
</svg>
