<svg width="50" height="50" viewBox="0 0 50 50" fill="none" xmlns="http://www.w3.org/2000/svg">
<circle cx="24.6393" cy="24.9997" r="20.9413" stroke="#729CEF" stroke-width="1.39609"/>
<path d="M24.6432 43.4066C19.6348 43.4066 19.0443 43.3801 17.0898 43.2946C15.5656 43.2445 14.0612 42.9347 12.6412 42.3784C10.1845 41.4224 8.24181 39.479 7.28666 37.0218C6.75183 35.5967 6.46336 34.091 6.43359 32.5692C6.31958 30.6187 6.31958 29.9795 6.31958 25.0097C6.31958 19.987 6.34605 19.4006 6.43359 17.4563C6.46401 15.9365 6.75247 14.4329 7.28666 13.0097C8.24078 10.5493 10.1866 8.60426 12.6473 7.65108C14.0698 7.114 15.5737 6.82477 17.0939 6.79598C19.0382 6.68604 19.6775 6.68604 24.6432 6.68604C29.6924 6.68604 30.2726 6.7125 32.1966 6.79598C33.7207 6.82502 35.2287 7.11422 36.6554 7.65108C39.1154 8.60534 41.0609 10.55 42.0161 13.0097C42.5599 14.4536 42.8499 15.9807 42.8732 17.5234C42.9872 19.4739 42.9872 20.1112 42.9872 25.0789C42.9872 30.0466 42.9587 30.6981 42.8732 32.6262C42.8429 34.1495 42.5537 35.6566 42.0181 37.0829C41.0605 39.5418 39.1149 41.4858 36.6554 42.4416C35.2307 42.9754 33.7259 43.2638 32.2048 43.2946C30.2604 43.4066 29.6232 43.4066 24.6432 43.4066ZM24.574 9.90896C19.594 9.90896 19.0769 9.93339 17.1326 10.0209C15.972 10.0363 14.8227 10.2505 13.7345 10.6541C12.1277 11.269 10.8562 12.5353 10.2347 14.1397C9.82797 15.2397 9.61378 16.4016 9.60155 17.5743C9.49364 19.5472 9.49364 20.0643 9.49364 25.0097C9.49364 29.896 9.51196 30.4884 9.60155 32.4491C9.61977 33.61 9.83384 34.7595 10.2347 35.8491C10.8571 37.4524 12.1284 38.7178 13.7345 39.3327C14.822 39.739 15.9718 39.9532 17.1326 39.9658C19.1034 40.0798 19.6225 40.0798 24.574 40.0798C29.5682 40.0798 30.0853 40.0554 32.0134 39.9658C33.1747 39.9517 34.3249 39.7375 35.4134 39.3327C37.0106 38.7125 38.2738 37.45 38.8949 35.8532C39.3009 34.7522 39.5151 33.5898 39.5281 32.4165H39.5505C39.6381 30.4701 39.6381 29.9509 39.6381 24.9771C39.6381 20.0032 39.6157 19.48 39.5281 17.5357C39.5099 16.3761 39.2958 15.2279 38.8949 14.1397C38.2752 12.5406 37.0118 11.2757 35.4134 10.6541C34.3251 10.2484 33.1748 10.0342 32.0134 10.0209C30.0446 9.90896 29.5295 9.90896 24.574 9.90896ZM24.6432 34.4138C20.836 34.4162 17.4022 32.1248 15.9433 28.6081C14.4844 25.0915 15.2878 21.0423 17.9788 18.349C20.6698 15.6556 24.7183 14.8487 28.2362 16.3046C31.7541 17.7604 34.0485 21.1922 34.0494 24.9995C34.0438 30.1934 29.8371 34.4037 24.6432 34.4138ZM24.6432 18.8875C21.2699 18.8875 18.5353 21.6221 18.5353 24.9954C18.5353 28.3687 21.2699 31.1033 24.6432 31.1033C28.0165 31.1033 30.7511 28.3687 30.7511 24.9954C30.7433 21.6254 28.0133 18.8954 24.6432 18.8875ZM34.4158 17.4359C33.2053 17.4314 32.227 16.4476 32.2292 15.2371C32.2315 14.0265 33.2134 13.0464 34.424 13.0464C35.6345 13.0464 36.6165 14.0265 36.6187 15.2371C36.6193 15.8211 36.3872 16.3813 35.9739 16.7939C35.5605 17.2065 34.9999 17.4375 34.4158 17.4359Z" fill="#729CEF"/>
</svg>
