<svg width="37" height="38" viewBox="0 0 37 38" fill="none" xmlns="http://www.w3.org/2000/svg">
<path d="M18.6435 37.4066C13.635 37.4066 13.0446 37.3801 11.0901 37.2946C9.56587 37.2445 8.06143 36.9347 6.64148 36.3784C4.18471 35.4224 2.24206 33.479 1.28691 31.0218C0.752071 29.5967 0.463599 28.091 0.433838 26.5692C0.319824 24.6187 0.319824 23.9794 0.319824 19.0097C0.319824 13.987 0.346292 13.4006 0.433838 11.4563C0.46425 9.93646 0.752712 8.43288 1.28691 7.00973C2.24102 4.54933 4.18683 2.60426 6.64759 1.65108C8.07 1.114 9.57397 0.824774 11.0941 0.795977C13.0385 0.686035 13.6778 0.686035 18.6435 0.686035C23.6926 0.686035 24.2729 0.712503 26.1969 0.795977C27.721 0.825023 29.2289 1.11422 30.6556 1.65108C33.1157 2.60534 35.0611 4.55003 36.0163 7.00973C36.5602 8.45362 36.8502 9.9807 36.8734 11.5234C36.9875 13.4739 36.9875 14.1112 36.9875 19.0789C36.9875 24.0466 36.959 24.6981 36.8734 26.6262C36.8431 28.1495 36.554 29.6566 36.0183 31.0829C35.0607 33.5418 33.1152 35.4858 30.6556 36.4416C29.231 36.9754 27.7261 37.2638 26.205 37.2946C24.2607 37.4066 23.6234 37.4066 18.6435 37.4066ZM18.5742 3.90896C13.5943 3.90896 13.0771 3.93339 11.1328 4.02094C9.97228 4.03631 8.82297 4.25047 7.73479 4.65412C6.12791 5.269 4.8564 6.53533 4.23497 8.13968C3.82822 9.23971 3.61402 10.4016 3.60179 11.5743C3.49389 13.5472 3.49389 14.0643 3.49389 19.0097C3.49389 23.896 3.51221 24.4884 3.60179 26.4491C3.62002 27.61 3.83409 28.7595 4.23497 29.8491C4.85732 31.4524 6.12861 32.7178 7.73479 33.3327C8.82223 33.739 9.97201 33.9532 11.1328 33.9658C13.1036 34.0798 13.6228 34.0798 18.5742 34.0798C23.5684 34.0798 24.0856 34.0554 26.0136 33.9658C27.1749 33.9517 28.3251 33.7375 29.4137 33.3327C31.0108 32.7125 32.2741 31.45 32.8952 29.8532C33.3011 28.7522 33.5153 27.5898 33.5284 26.4165H33.5508C33.6383 24.4701 33.6383 23.9509 33.6383 18.9771C33.6383 14.0032 33.6159 13.48 33.5284 11.5357C33.5101 10.3761 33.296 9.22793 32.8952 8.13968C32.2755 6.54059 31.0121 5.27568 29.4137 4.65412C28.3254 4.24844 27.175 4.03421 26.0136 4.02094C24.0449 3.90896 23.5298 3.90896 18.5742 3.90896ZM18.6435 28.4138C14.8362 28.4162 11.4024 26.1248 9.94353 22.6081C8.48465 19.0915 9.28804 15.0423 11.979 12.349C14.67 9.65564 18.7185 8.84875 22.2364 10.3046C25.7544 11.7604 28.0488 15.1922 28.0496 18.9995C28.044 24.1934 23.8373 28.4037 18.6435 28.4138ZM18.6435 12.8875C15.2702 12.8875 12.5356 15.6221 12.5356 18.9954C12.5356 22.3687 15.2702 25.1033 18.6435 25.1033C22.0167 25.1033 24.7513 22.3687 24.7513 18.9954C24.7435 15.6254 22.0135 12.8954 18.6435 12.8875ZM28.4161 11.4359C27.2055 11.4314 26.2272 10.4476 26.2295 9.23708C26.2317 8.02654 27.2137 7.04639 28.4242 7.04639C29.6348 7.04639 30.6167 8.02652 30.619 9.23707C30.6195 9.82111 30.3875 10.3813 29.9741 10.7939C29.5608 11.2065 29.0001 11.4375 28.4161 11.4359Z" fill="#729CEF"/>
</svg>
