<svg width="51" height="50" viewBox="0 0 51 50" fill="none" xmlns="http://www.w3.org/2000/svg">
<circle cx="25.3279" cy="24.9997" r="19.6721" stroke="#729CEF" stroke-width="1.31148"/>
<path d="M41.9294 13.9691C43.7908 12.8563 45.1837 11.104 45.8478 9.03951C44.0986 10.0774 42.1849 10.8084 40.1893 11.2011C37.4225 8.27438 33.0389 7.56213 29.4878 9.4624C25.9368 11.3627 24.0974 15.405 24.9976 19.3307C17.8329 18.971 11.1576 15.5865 6.63301 10.0196C4.27169 14.0925 5.47837 19.2991 9.3906 21.918C7.9759 21.8725 6.59257 21.4895 5.35596 20.8008C5.35596 20.8382 5.35596 20.8756 5.35596 20.913C5.35678 25.1556 8.3469 28.8101 12.5054 29.6509C11.1931 30.0079 9.81671 30.0604 8.4811 29.8045C9.65058 33.4327 12.9945 35.9184 16.8058 35.9925C13.6492 38.47 9.75083 39.8136 5.73803 39.807C5.02677 39.8081 4.31607 39.7672 3.60962 39.6845C7.68453 42.3031 12.4272 43.6929 17.2709 43.688C24.0097 43.7343 30.4859 41.0777 35.2508 36.3123C40.0157 31.547 42.6719 25.0706 42.625 18.3319C42.625 17.9456 42.616 17.5615 42.598 17.1794C44.3432 15.9181 45.8494 14.3557 47.0459 12.5654C45.42 13.2861 43.6954 13.7592 41.9294 13.9691Z" fill="#729CEF"/>
</svg>
