<svg width="45" height="36" viewBox="0 0 45 36" fill="none" xmlns="http://www.w3.org/2000/svg">
<path d="M38.9296 5.96913C40.7911 4.85631 42.1839 3.10405 42.848 1.03951C41.0989 2.07735 39.1851 2.80843 37.1895 3.20115C34.4228 0.274375 30.0391 -0.437868 26.4881 1.4624C22.937 3.36267 21.0977 7.40501 21.9978 11.3307C14.8331 10.971 8.15788 7.58655 3.63325 2.01962C1.27193 6.09251 2.47862 11.2991 6.39085 13.918C4.97615 13.8725 3.59282 13.4895 2.3562 12.8008C2.3562 12.8382 2.3562 12.8756 2.3562 12.913C2.35702 17.1556 5.34714 20.8101 9.5056 21.6509C8.19338 22.0079 6.81696 22.0604 5.48134 21.8045C6.65082 25.4327 9.99472 27.9184 13.806 27.9925C10.6494 30.47 6.75107 31.8136 2.73828 31.807C2.02702 31.8081 1.31631 31.7672 0.609863 31.6845C4.68477 34.3031 9.42746 35.6929 14.2712 35.688C21.0099 35.7343 27.4861 33.0777 32.251 28.3123C37.016 23.547 39.6721 17.0706 39.6253 10.3319C39.6253 9.94563 39.6163 9.56148 39.5983 9.1794C41.3435 7.91814 42.8497 6.35567 44.0461 4.56541C42.4203 5.28609 40.6957 5.75924 38.9296 5.96913Z" fill="#729CEF"/>
</svg>
