<svg width="45" height="36" viewBox="0 0 45 36" fill="none" xmlns="http://www.w3.org/2000/svg">
<path d="M38.9294 5.96913C40.7908 4.85631 42.1837 3.10405 42.8478 1.03951C41.0986 2.07735 39.1849 2.80843 37.1893 3.20115C34.4225 0.274375 30.0389 -0.437868 26.4878 1.4624C22.9368 3.36267 21.0974 7.40501 21.9976 11.3307C14.8329 10.971 8.15764 7.58655 3.63301 2.01962C1.27169 6.09251 2.47837 11.2991 6.3906 13.918C4.9759 13.8725 3.59257 13.4895 2.35596 12.8008C2.35596 12.8382 2.35596 12.8756 2.35596 12.913C2.35678 17.1556 5.34689 20.8101 9.50536 21.6509C8.19314 22.0079 6.81671 22.0604 5.4811 21.8045C6.65058 25.4327 9.99448 27.9184 13.8058 27.9925C10.6492 30.47 6.75083 31.8136 2.73803 31.807C2.02677 31.8081 1.31607 31.7672 0.609619 31.6845C4.68453 34.3031 9.42722 35.6929 14.2709 35.688C21.0097 35.7343 27.4859 33.0777 32.2508 28.3123C37.0157 23.547 39.6719 17.0706 39.625 10.3319C39.625 9.94563 39.616 9.56148 39.598 9.1794C41.3432 7.91814 42.8494 6.35567 44.0459 4.56541C42.42 5.28609 40.6954 5.75924 38.9294 5.96913Z" fill="#F2F2F3"/>
</svg>
