<svg width="184" height="25" viewBox="0 0 184 25" fill="none" xmlns="http://www.w3.org/2000/svg">
<path d="M53.326 16.6507C52.4673 16.6507 51.786 16.5621 51.282 16.3847C50.7873 16.2074 50.4327 15.9367 50.218 15.5727C50.0033 15.1994 49.896 14.7094 49.896 14.1027V6.71074H51.94V10.4067C52.0613 10.0987 52.2853 9.88874 52.612 9.77674C52.9387 9.65541 53.4473 9.59474 54.138 9.59474C54.726 9.59474 55.1973 9.64141 55.552 9.73474C55.916 9.82808 56.1913 9.97741 56.378 10.1827C56.5553 10.3881 56.6767 10.6167 56.742 10.8687C56.8073 11.1114 56.84 11.4474 56.84 11.8767V14.1027C56.84 15.0174 56.5647 15.6707 56.014 16.0627C55.4633 16.4547 54.5673 16.6507 53.326 16.6507ZM53.354 15.3767C53.7553 15.3767 54.0587 15.3487 54.264 15.2927C54.4693 15.2367 54.6093 15.1387 54.684 14.9987C54.7587 14.8587 54.796 14.6487 54.796 14.3687V11.8627C54.796 11.5547 54.7633 11.3354 54.698 11.2047C54.6327 11.0647 54.502 10.9714 54.306 10.9247C54.11 10.8781 53.788 10.8547 53.34 10.8547C52.9573 10.8547 52.6633 10.8874 52.458 10.9527C52.262 11.0181 52.1267 11.1207 52.052 11.2607C51.9773 11.4007 51.94 11.6014 51.94 11.8627V14.3687C51.94 14.6487 51.9727 14.8587 52.038 14.9987C52.1127 15.1387 52.248 15.2367 52.444 15.2927C52.6493 15.3487 52.9527 15.3767 53.354 15.3767ZM60.3589 16.6507C59.7243 16.6507 59.2483 16.5947 58.9309 16.4827C58.6229 16.3614 58.4036 16.1514 58.2729 15.8527C58.1516 15.5447 58.0909 15.0874 58.0909 14.4807C58.0909 13.9394 58.1563 13.5147 58.2869 13.2067C58.4269 12.8987 58.6463 12.6794 58.9449 12.5487C59.2529 12.4087 59.6729 12.3387 60.2049 12.3387H62.5009V11.8767C62.5009 11.5874 62.4589 11.3727 62.3749 11.2327C62.3003 11.0927 62.1556 10.9947 61.9409 10.9387C61.7356 10.8827 61.4229 10.8547 61.0029 10.8547C60.4243 10.8547 59.6309 10.9107 58.6229 11.0227V9.73474C59.3603 9.64141 60.2236 9.59474 61.2129 9.59474C62.0809 9.59474 62.7483 9.66008 63.2149 9.79074C63.6909 9.92141 64.0316 10.1454 64.2369 10.4627C64.4423 10.7801 64.5449 11.2421 64.5449 11.8487V16.5107H62.5429V15.8947C62.3843 16.1654 62.1696 16.3567 61.8989 16.4687C61.6283 16.5901 61.1149 16.6507 60.3589 16.6507ZM61.1569 15.3767C61.5676 15.3767 61.8616 15.3627 62.0389 15.3347C62.1696 15.3161 62.2583 15.2881 62.3049 15.2507C62.3609 15.2134 62.4076 15.1527 62.4449 15.0687C62.4823 15.0034 62.5009 14.9054 62.5009 14.7747V13.4587H61.1009C60.7836 13.4587 60.5596 13.4821 60.4289 13.5287C60.2983 13.5661 60.2096 13.6501 60.1629 13.7807C60.1163 13.9021 60.0929 14.1214 60.0929 14.4387C60.0929 14.7467 60.1163 14.9614 60.1629 15.0827C60.2096 15.2041 60.2983 15.2834 60.4289 15.3207C60.5689 15.3581 60.8116 15.3767 61.1569 15.3767ZM69.6473 16.6507C69.2926 16.6507 69.0126 16.6414 68.8073 16.6227C68.6019 16.6134 68.3499 16.5901 68.0513 16.5527C67.7526 16.5154 67.5053 16.4501 67.3093 16.3567C67.1226 16.2634 66.9266 16.1234 66.7213 15.9367C66.3386 15.6194 66.1473 15.0781 66.1473 14.3127V12.0587C66.1473 11.4427 66.2873 10.9294 66.5673 10.5187C66.6699 10.3694 66.8193 10.2341 67.0153 10.1127C67.2206 9.98208 67.4259 9.87941 67.6313 9.80474C67.7993 9.74874 68.0233 9.70208 68.3033 9.66474C68.5833 9.62741 68.8306 9.60408 69.0453 9.59474H69.7873C70.3099 9.59474 70.9959 9.67874 71.8453 9.84674V11.1907C70.8839 10.9667 70.1466 10.8547 69.6333 10.8547C68.6906 10.8547 68.2193 11.1721 68.2193 11.8067V14.2987C68.2193 15.0174 68.7373 15.3767 69.7733 15.3767C70.2773 15.3767 71.0006 15.2741 71.9433 15.0687V16.4127C71.0939 16.5714 70.3286 16.6507 69.6473 16.6507ZM73.0972 6.71074H75.1412V16.5107H73.0972V6.71074ZM75.2252 12.7027L77.4512 9.73474H79.7892L77.4372 12.6887L79.9852 16.5107H77.6752L75.2252 12.7027ZM83.8843 6.71074H85.9283V10.5607C86.0589 9.91674 86.7729 9.59474 88.0703 9.59474C88.9383 9.59474 89.5449 9.75341 89.8903 10.0707C90.2449 10.3787 90.4223 10.8687 90.4223 11.5407V16.5107H88.3783V11.7787C88.3783 11.5174 88.3503 11.3261 88.2943 11.2047C88.2476 11.0741 88.1496 10.9854 88.0003 10.9387C87.8509 10.8827 87.6129 10.8547 87.2863 10.8547C86.8849 10.8547 86.5909 10.8781 86.4043 10.9247C86.2176 10.9714 86.0916 11.0601 86.0263 11.1907C85.9609 11.3121 85.9283 11.5081 85.9283 11.7787V16.5107H83.8843V6.71074ZM95.4585 16.6507C95.0385 16.6507 94.6931 16.6367 94.4225 16.6087C94.1518 16.5807 93.8625 16.5247 93.5545 16.4407C93.2185 16.3474 92.9478 16.2167 92.7425 16.0487C92.5371 15.8714 92.3645 15.6241 92.2245 15.3067C92.0845 14.9987 92.0145 14.6254 92.0145 14.1867V12.1847C92.0145 11.7367 92.0845 11.3447 92.2245 11.0087C92.3645 10.6727 92.5465 10.4114 92.7705 10.2247C92.9665 10.0661 93.2231 9.93541 93.5405 9.83274C93.8671 9.72074 94.1845 9.65074 94.4925 9.62274C94.8471 9.60408 95.1691 9.59474 95.4585 9.59474C95.8878 9.59474 96.2285 9.60874 96.4805 9.63674C96.7418 9.65541 97.0265 9.71141 97.3345 9.80474C97.6705 9.90741 97.9411 10.0474 98.1465 10.2247C98.3611 10.4021 98.5431 10.6541 98.6925 10.9807C98.8325 11.3167 98.9025 11.7181 98.9025 12.1847V14.1867C98.9025 14.6067 98.8325 14.9754 98.6925 15.2927C98.5618 15.6101 98.3891 15.8574 98.1745 16.0347C97.9878 16.1934 97.7311 16.3241 97.4045 16.4267C97.0871 16.5201 96.7745 16.5807 96.4665 16.6087C96.1865 16.6367 95.8505 16.6507 95.4585 16.6507ZM95.4585 15.3767C95.8411 15.3767 96.1305 15.3487 96.3265 15.2927C96.5225 15.2274 96.6578 15.1294 96.7325 14.9987C96.8165 14.8681 96.8585 14.6767 96.8585 14.4247V11.8627C96.8585 11.4894 96.7605 11.2281 96.5645 11.0787C96.3685 10.9294 95.9998 10.8547 95.4585 10.8547C94.9171 10.8547 94.5485 10.9294 94.3525 11.0787C94.1565 11.2281 94.0585 11.4894 94.0585 11.8627V14.4247C94.0585 14.6767 94.0958 14.8681 94.1705 14.9987C94.2545 15.1294 94.3945 15.2274 94.5905 15.2927C94.7865 15.3487 95.0758 15.3767 95.4585 15.3767ZM100.496 9.73474H102.54V10.5607C102.67 9.91674 103.338 9.59474 104.542 9.59474C105.176 9.59474 105.657 9.67874 105.984 9.84674C106.31 10.0054 106.53 10.2574 106.642 10.6027C106.754 10.2481 106.968 9.99141 107.286 9.83274C107.612 9.67408 108.102 9.59474 108.756 9.59474C109.344 9.59474 109.796 9.66474 110.114 9.80474C110.431 9.93541 110.65 10.1407 110.772 10.4207C110.902 10.7007 110.968 11.0741 110.968 11.5407V16.5107H108.924V11.8207C108.924 11.5221 108.905 11.3121 108.868 11.1907C108.83 11.0601 108.746 10.9714 108.616 10.9247C108.494 10.8781 108.28 10.8547 107.972 10.8547C107.589 10.8547 107.314 10.8781 107.146 10.9247C106.987 10.9714 106.88 11.0601 106.824 11.1907C106.777 11.3121 106.754 11.5221 106.754 11.8207V16.5107H104.71V11.8207C104.71 11.5221 104.691 11.3121 104.654 11.1907C104.616 11.0601 104.532 10.9714 104.402 10.9247C104.28 10.8781 104.066 10.8547 103.758 10.8547C103.375 10.8547 103.1 10.8781 102.932 10.9247C102.773 10.9714 102.666 11.0601 102.61 11.1907C102.563 11.3121 102.54 11.5221 102.54 11.8207V16.5107H100.496V9.73474ZM116.161 16.6507C113.763 16.6507 112.563 15.9181 112.563 14.4527V12.0167C112.563 11.1674 112.834 10.5514 113.375 10.1687C113.926 9.78608 114.771 9.59474 115.909 9.59474C116.983 9.59474 117.767 9.78141 118.261 10.1547C118.765 10.5187 119.017 11.1394 119.017 12.0167V13.6687H114.621V14.2847C114.621 14.6767 114.761 14.9567 115.041 15.1247C115.321 15.2927 115.825 15.3767 116.553 15.3767C117.225 15.3767 117.981 15.2787 118.821 15.0827V16.3847C117.991 16.5621 117.104 16.6507 116.161 16.6507ZM117.071 12.5067V11.5267C117.071 11.3027 116.978 11.1347 116.791 11.0227C116.614 10.9107 116.311 10.8547 115.881 10.8547C115.387 10.8547 115.055 10.9107 114.887 11.0227C114.71 11.1441 114.621 11.3121 114.621 11.5267V12.5067H117.071Z" fill="#232324"/>
<path d="M14.8876 3.9043L6.7561 12.5814L14.8876 21.2585L16.2436 19.8125L9.46627 12.5814L16.2436 5.35031L14.8876 3.9043Z" fill="#232324"/>
</svg>
