<svg width="184" height="25" viewBox="0 0 184 25" fill="none" xmlns="http://www.w3.org/2000/svg">
<path d="M53.326 16.3412C52.4673 16.3412 51.786 16.2525 51.282 16.0752C50.7873 15.8978 50.4327 15.6272 50.218 15.2632C50.0033 14.8898 49.896 14.3998 49.896 13.7932V6.40117H51.94V10.0972C52.0613 9.78917 52.2853 9.57917 52.612 9.46717C52.9387 9.34584 53.4473 9.28517 54.138 9.28517C54.726 9.28517 55.1973 9.33184 55.552 9.42517C55.916 9.5185 56.1913 9.66784 56.378 9.87317C56.5553 10.0785 56.6767 10.3072 56.742 10.5592C56.8073 10.8018 56.84 11.1378 56.84 11.5672V13.7932C56.84 14.7078 56.5647 15.3612 56.014 15.7532C55.4633 16.1452 54.5673 16.3412 53.326 16.3412ZM53.354 15.0672C53.7553 15.0672 54.0587 15.0392 54.264 14.9832C54.4693 14.9272 54.6093 14.8292 54.684 14.6892C54.7587 14.5492 54.796 14.3392 54.796 14.0592V11.5532C54.796 11.2452 54.7633 11.0258 54.698 10.8952C54.6327 10.7552 54.502 10.6618 54.306 10.6152C54.11 10.5685 53.788 10.5452 53.34 10.5452C52.9573 10.5452 52.6633 10.5778 52.458 10.6432C52.262 10.7085 52.1267 10.8112 52.052 10.9512C51.9773 11.0912 51.94 11.2918 51.94 11.5532V14.0592C51.94 14.3392 51.9727 14.5492 52.038 14.6892C52.1127 14.8292 52.248 14.9272 52.444 14.9832C52.6493 15.0392 52.9527 15.0672 53.354 15.0672ZM60.3589 16.3412C59.7243 16.3412 59.2483 16.2852 58.9309 16.1732C58.6229 16.0518 58.4036 15.8418 58.2729 15.5432C58.1516 15.2352 58.0909 14.7778 58.0909 14.1712C58.0909 13.6298 58.1563 13.2052 58.2869 12.8972C58.4269 12.5892 58.6463 12.3698 58.9449 12.2392C59.2529 12.0992 59.6729 12.0292 60.2049 12.0292H62.5009V11.5672C62.5009 11.2778 62.4589 11.0632 62.3749 10.9232C62.3003 10.7832 62.1556 10.6852 61.9409 10.6292C61.7356 10.5732 61.4229 10.5452 61.0029 10.5452C60.4243 10.5452 59.6309 10.6012 58.6229 10.7132V9.42517C59.3603 9.33184 60.2236 9.28517 61.2129 9.28517C62.0809 9.28517 62.7483 9.3505 63.2149 9.48117C63.6909 9.61184 64.0316 9.83584 64.2369 10.1532C64.4423 10.4705 64.5449 10.9325 64.5449 11.5392V16.2012H62.5429V15.5852C62.3843 15.8558 62.1696 16.0472 61.8989 16.1592C61.6283 16.2805 61.1149 16.3412 60.3589 16.3412ZM61.1569 15.0672C61.5676 15.0672 61.8616 15.0532 62.0389 15.0252C62.1696 15.0065 62.2583 14.9785 62.3049 14.9412C62.3609 14.9038 62.4076 14.8432 62.4449 14.7592C62.4823 14.6938 62.5009 14.5958 62.5009 14.4652V13.1492H61.1009C60.7836 13.1492 60.5596 13.1725 60.4289 13.2192C60.2983 13.2565 60.2096 13.3405 60.1629 13.4712C60.1163 13.5925 60.0929 13.8118 60.0929 14.1292C60.0929 14.4372 60.1163 14.6518 60.1629 14.7732C60.2096 14.8945 60.2983 14.9738 60.4289 15.0112C60.5689 15.0485 60.8116 15.0672 61.1569 15.0672ZM69.6473 16.3412C69.2926 16.3412 69.0126 16.3318 68.8073 16.3132C68.6019 16.3038 68.3499 16.2805 68.0513 16.2432C67.7526 16.2058 67.5053 16.1405 67.3093 16.0472C67.1226 15.9538 66.9266 15.8138 66.7213 15.6272C66.3386 15.3098 66.1473 14.7685 66.1473 14.0032V11.7492C66.1473 11.1332 66.2873 10.6198 66.5673 10.2092C66.6699 10.0598 66.8193 9.9245 67.0153 9.80317C67.2206 9.6725 67.4259 9.56984 67.6313 9.49517C67.7993 9.43917 68.0233 9.3925 68.3033 9.35517C68.5833 9.31784 68.8306 9.2945 69.0453 9.28517H69.7873C70.3099 9.28517 70.9959 9.36917 71.8453 9.53717V10.8812C70.8839 10.6572 70.1466 10.5452 69.6333 10.5452C68.6906 10.5452 68.2193 10.8625 68.2193 11.4972V13.9892C68.2193 14.7078 68.7373 15.0672 69.7733 15.0672C70.2773 15.0672 71.0006 14.9645 71.9433 14.7592V16.1032C71.0939 16.2618 70.3286 16.3412 69.6473 16.3412ZM73.0972 6.40117H75.1412V16.2012H73.0972V6.40117ZM75.2252 12.3932L77.4512 9.42517H79.7892L77.4372 12.3792L79.9852 16.2012H77.6752L75.2252 12.3932ZM83.8843 6.40117H85.9283V10.2512C86.0589 9.60717 86.7729 9.28517 88.0703 9.28517C88.9383 9.28517 89.5449 9.44384 89.8903 9.76117C90.2449 10.0692 90.4223 10.5592 90.4223 11.2312V16.2012H88.3783V11.4692C88.3783 11.2078 88.3503 11.0165 88.2943 10.8952C88.2476 10.7645 88.1496 10.6758 88.0003 10.6292C87.8509 10.5732 87.6129 10.5452 87.2863 10.5452C86.8849 10.5452 86.5909 10.5685 86.4043 10.6152C86.2176 10.6618 86.0916 10.7505 86.0263 10.8812C85.9609 11.0025 85.9283 11.1985 85.9283 11.4692V16.2012H83.8843V6.40117ZM95.4585 16.3412C95.0385 16.3412 94.6931 16.3272 94.4225 16.2992C94.1518 16.2712 93.8625 16.2152 93.5545 16.1312C93.2185 16.0378 92.9478 15.9072 92.7425 15.7392C92.5371 15.5618 92.3645 15.3145 92.2245 14.9972C92.0845 14.6892 92.0145 14.3158 92.0145 13.8772V11.8752C92.0145 11.4272 92.0845 11.0352 92.2245 10.6992C92.3645 10.3632 92.5465 10.1018 92.7705 9.91517C92.9665 9.7565 93.2231 9.62584 93.5405 9.52317C93.8671 9.41117 94.1845 9.34117 94.4925 9.31317C94.8471 9.2945 95.1691 9.28517 95.4585 9.28517C95.8878 9.28517 96.2285 9.29917 96.4805 9.32717C96.7418 9.34584 97.0265 9.40184 97.3345 9.49517C97.6705 9.59784 97.9411 9.73784 98.1465 9.91517C98.3611 10.0925 98.5431 10.3445 98.6925 10.6712C98.8325 11.0072 98.9025 11.4085 98.9025 11.8752V13.8772C98.9025 14.2972 98.8325 14.6658 98.6925 14.9832C98.5618 15.3005 98.3891 15.5478 98.1745 15.7252C97.9878 15.8838 97.7311 16.0145 97.4045 16.1172C97.0871 16.2105 96.7745 16.2712 96.4665 16.2992C96.1865 16.3272 95.8505 16.3412 95.4585 16.3412ZM95.4585 15.0672C95.8411 15.0672 96.1305 15.0392 96.3265 14.9832C96.5225 14.9178 96.6578 14.8198 96.7325 14.6892C96.8165 14.5585 96.8585 14.3672 96.8585 14.1152V11.5532C96.8585 11.1798 96.7605 10.9185 96.5645 10.7692C96.3685 10.6198 95.9998 10.5452 95.4585 10.5452C94.9171 10.5452 94.5485 10.6198 94.3525 10.7692C94.1565 10.9185 94.0585 11.1798 94.0585 11.5532V14.1152C94.0585 14.3672 94.0958 14.5585 94.1705 14.6892C94.2545 14.8198 94.3945 14.9178 94.5905 14.9832C94.7865 15.0392 95.0758 15.0672 95.4585 15.0672ZM100.496 9.42517H102.54V10.2512C102.67 9.60717 103.338 9.28517 104.542 9.28517C105.176 9.28517 105.657 9.36917 105.984 9.53717C106.31 9.69584 106.53 9.94784 106.642 10.2932C106.754 9.93851 106.968 9.68184 107.286 9.52317C107.612 9.3645 108.102 9.28517 108.756 9.28517C109.344 9.28517 109.796 9.35517 110.114 9.49517C110.431 9.62584 110.65 9.83117 110.772 10.1112C110.902 10.3912 110.968 10.7645 110.968 11.2312V16.2012H108.924V11.5112C108.924 11.2125 108.905 11.0025 108.868 10.8812C108.83 10.7505 108.746 10.6618 108.616 10.6152C108.494 10.5685 108.28 10.5452 107.972 10.5452C107.589 10.5452 107.314 10.5685 107.146 10.6152C106.987 10.6618 106.88 10.7505 106.824 10.8812C106.777 11.0025 106.754 11.2125 106.754 11.5112V16.2012H104.71V11.5112C104.71 11.2125 104.691 11.0025 104.654 10.8812C104.616 10.7505 104.532 10.6618 104.402 10.6152C104.28 10.5685 104.066 10.5452 103.758 10.5452C103.375 10.5452 103.1 10.5685 102.932 10.6152C102.773 10.6618 102.666 10.7505 102.61 10.8812C102.563 11.0025 102.54 11.2125 102.54 11.5112V16.2012H100.496V9.42517ZM116.161 16.3412C113.763 16.3412 112.563 15.6085 112.563 14.1432V11.7072C112.563 10.8578 112.834 10.2418 113.375 9.85917C113.926 9.47651 114.771 9.28517 115.909 9.28517C116.983 9.28517 117.767 9.47184 118.261 9.84517C118.765 10.2092 119.017 10.8298 119.017 11.7072V13.3592H114.621V13.9752C114.621 14.3672 114.761 14.6472 115.041 14.8152C115.321 14.9832 115.825 15.0672 116.553 15.0672C117.225 15.0672 117.981 14.9692 118.821 14.7732V16.0752C117.991 16.2525 117.104 16.3412 116.161 16.3412ZM117.071 12.1972V11.2172C117.071 10.9932 116.978 10.8252 116.791 10.7132C116.614 10.6012 116.311 10.5452 115.881 10.5452C115.387 10.5452 115.055 10.6012 114.887 10.7132C114.71 10.8345 114.621 11.0025 114.621 11.2172V12.1972H117.071Z" fill="#232324"/>
<path d="M14.8876 3.59473L6.7561 12.2718L14.8876 20.9489L16.2436 19.5029L9.46627 12.2718L16.2436 5.04074L14.8876 3.59473Z" fill="#232324"/>
</svg>
