<svg width="21" height="21" viewBox="0 0 21 21" fill="none" xmlns="http://www.w3.org/2000/svg">
<path d="M11.5417 5.29134H9.45837V9.45801H5.29171V11.5413H9.45837V15.708H11.5417V11.5413H15.7084V9.45801H11.5417V5.29134ZM10.5 0.0830078C4.75004 0.0830078 0.083374 4.74967 0.083374 10.4997C0.083374 16.2497 4.75004 20.9163 10.5 20.9163C16.25 20.9163 20.9167 16.2497 20.9167 10.4997C20.9167 4.74967 16.25 0.0830078 10.5 0.0830078ZM10.5 18.833C5.90629 18.833 2.16671 15.0934 2.16671 10.4997C2.16671 5.90592 5.90629 2.16634 10.5 2.16634C15.0938 2.16634 18.8334 5.90592 18.8334 10.4997C18.8334 15.0934 15.0938 18.833 10.5 18.833Z" fill="white"/>
</svg>
