<svg width="25" height="20" viewBox="0 0 25 20" fill="none" xmlns="http://www.w3.org/2000/svg">
<path d="M12.4378 0.00340825C12.2966 0.0188882 12.1663 0.0865732 12.0727 0.193123C11.979 0.299673 11.9287 0.437358 11.9318 0.57904V3.41292C11.9307 3.48802 11.9446 3.56259 11.9727 3.63229C12.0008 3.70198 12.0425 3.76542 12.0953 3.8189C12.1482 3.87239 12.2112 3.91486 12.2807 3.94385C12.3501 3.97284 12.4247 3.98777 12.5 3.98777C12.5753 3.98777 12.6499 3.97284 12.7193 3.94385C12.7888 3.91486 12.8518 3.87239 12.9047 3.8189C12.9575 3.76542 12.9992 3.70198 13.0273 3.63229C13.0554 3.56259 13.0693 3.48802 13.0682 3.41292V0.57904C13.07 0.498356 13.0544 0.418231 13.0226 0.344024C12.9908 0.269818 12.9435 0.20324 12.8838 0.148745C12.8241 0.0942504 12.7535 0.0530947 12.6766 0.0280305C12.5997 0.00296637 12.5183 -0.00542838 12.4378 0.00340825ZM3.62136 1.98712C3.52729 1.99775 3.43737 2.03164 3.35976 2.08574C3.28216 2.13983 3.21934 2.2124 3.177 2.29686C3.13466 2.38133 3.11414 2.475 3.11732 2.56938C3.1205 2.66376 3.14726 2.75585 3.19519 2.83729L4.61577 5.38778C4.68877 5.51931 4.81116 5.61653 4.95602 5.65804C5.10088 5.69956 5.25634 5.68199 5.38821 5.60918C5.52008 5.53637 5.61754 5.41429 5.65917 5.2698C5.7008 5.12531 5.68317 4.97024 5.61018 4.83871L4.18959 2.28822C4.13648 2.18664 4.05376 2.10348 3.95232 2.04973C3.85088 1.99598 3.73549 1.97415 3.62136 1.98712ZM21.2543 1.98712C21.1612 1.99694 21.0719 2.02956 20.9945 2.08209C20.917 2.13462 20.8538 2.20543 20.8104 2.28822L19.3898 4.83871C19.3168 4.97024 19.2992 5.12531 19.3408 5.2698C19.3825 5.41429 19.4799 5.53637 19.6118 5.60918C19.7437 5.68199 19.8991 5.69956 20.044 5.65804C20.1888 5.61653 20.3112 5.51931 20.3842 5.38778L21.8048 2.83729C21.858 2.74677 21.8849 2.64332 21.8826 2.53844C21.8803 2.43356 21.8489 2.33138 21.7918 2.24325C21.7348 2.15513 21.6543 2.08453 21.5594 2.03931C21.4645 1.99409 21.3589 1.97602 21.2543 1.98712ZM12.5 6.2468C7.42845 6.2468 2.92395 8.67015 0.114299 12.4193C0.0401184 12.5176 0 12.6373 0 12.7603C0 12.8833 0.0401184 13.003 0.114299 13.1012C2.92395 16.8505 7.42845 19.2826 12.5 19.2826C17.5716 19.2826 22.076 16.8505 24.8857 13.1012C24.9599 13.003 25 12.8833 25 12.7603C25 12.6373 24.9599 12.5176 24.8857 12.4193C22.076 8.67015 17.5716 6.2468 12.5 6.2468ZM12.5 7.38035C13.7951 7.38035 15.0473 7.55586 16.2379 7.87628C16.8213 8.65305 17.1613 9.60924 17.1613 10.657C17.1613 13.2331 15.0829 15.3152 12.5 15.3152C9.91708 15.3152 7.83871 13.2331 7.83871 10.657C7.83871 9.60924 8.17874 8.65305 8.76209 7.87628C9.95271 7.55586 11.2049 7.38035 12.5 7.38035ZM12.5 8.23051C11.0945 8.23051 9.94295 9.37911 9.94295 10.781C9.94295 12.1829 11.0945 13.3315 12.5 13.3315C13.9055 13.3315 15.057 12.1829 15.057 10.781C15.057 9.37911 13.9055 8.23051 12.5 8.23051ZM7.15506 8.41649C6.86464 9.10737 6.70225 9.8624 6.70225 10.657C6.70225 13.8458 9.30293 16.4488 12.5 16.4488C15.6971 16.4488 18.2978 13.8458 18.2978 10.657C18.2978 9.8624 18.1354 9.10737 17.8449 8.41649C20.1561 9.34663 22.1704 10.8554 23.696 12.7647C21.0807 16.0357 17.0465 18.1491 12.5 18.1491C7.95349 18.1491 3.91932 16.0357 1.30404 12.7647C2.82957 10.8554 4.84393 9.34663 7.15506 8.41649ZM12.5 9.36407C13.2913 9.36407 13.9206 9.99174 13.9206 10.781C13.9206 11.5703 13.2913 12.1979 12.5 12.1979C11.7087 12.1979 11.0794 11.5703 11.0794 10.781C11.0794 9.99174 11.7087 9.36407 12.5 9.36407Z" fill="#232324"/>
</svg>
