<svg width="21" height="21" viewBox="0 0 21 21" fill="none" xmlns="http://www.w3.org/2000/svg">
<path d="M11.5417 5.29159H9.45837V9.45825H5.29171V11.5416H9.45837V15.7083H11.5417V11.5416H15.7084V9.45825H11.5417V5.29159ZM10.5 0.083252C4.75004 0.083252 0.083374 4.74992 0.083374 10.4999C0.083374 16.2499 4.75004 20.9166 10.5 20.9166C16.25 20.9166 20.9167 16.2499 20.9167 10.4999C20.9167 4.74992 16.25 0.083252 10.5 0.083252ZM10.5 18.8333C5.90629 18.8333 2.16671 15.0937 2.16671 10.4999C2.16671 5.90617 5.90629 2.16659 10.5 2.16659C15.0938 2.16659 18.8334 5.90617 18.8334 10.4999C18.8334 15.0937 15.0938 18.8333 10.5 18.8333Z" fill="#386CD1"/>
</svg>
