<svg width="25" height="25" viewBox="0 0 25 25" fill="none" xmlns="http://www.w3.org/2000/svg">
<path d="M13.5417 7.29158H11.4584V11.4583H7.29171V13.5416H11.4584V17.7083H13.5417V13.5416H17.7084V11.4583H13.5417V7.29158ZM12.5 2.08325C6.75004 2.08325 2.08337 6.74992 2.08337 12.4999C2.08337 18.2499 6.75004 22.9166 12.5 22.9166C18.25 22.9166 22.9167 18.2499 22.9167 12.4999C22.9167 6.74992 18.25 2.08325 12.5 2.08325ZM12.5 20.8333C7.90629 20.8333 4.16671 17.0937 4.16671 12.4999C4.16671 7.90617 7.90629 4.16659 12.5 4.16659C17.0938 4.16659 20.8334 7.90617 20.8334 12.4999C20.8334 17.0937 17.0938 20.8333 12.5 20.8333Z" fill="#386CD1"/>
</svg>
