<svg width="29" height="26" viewBox="0 0 29 26" fill="none" xmlns="http://www.w3.org/2000/svg">
<g filter="url(#filter0_d)">
<path d="M14.4378 0.0040653C14.2966 0.0225295 14.1663 0.103263 14.0727 0.230354C13.979 0.357445 13.9287 0.521673 13.9318 0.690669V4.07087C13.9307 4.16045 13.9446 4.2494 13.9727 4.33253C14.0008 4.41566 14.0425 4.49132 14.0953 4.55512C14.1482 4.61892 14.2112 4.66958 14.2807 4.70415C14.3501 4.73873 14.4247 4.75654 14.5 4.75654C14.5753 4.75654 14.6499 4.73873 14.7193 4.70415C14.7888 4.66958 14.8518 4.61892 14.9047 4.55512C14.9575 4.49132 14.9992 4.41566 15.0273 4.33253C15.0554 4.2494 15.0693 4.16045 15.0682 4.07087V0.690669C15.07 0.59443 15.0544 0.498859 15.0226 0.410346C14.9908 0.321834 14.9435 0.242421 14.8838 0.177421C14.8241 0.11242 14.7535 0.0633304 14.6766 0.0334343C14.5997 0.00353824 14.5183 -0.00647488 14.4378 0.0040653ZM5.62136 2.37021C5.52729 2.38288 5.43737 2.42331 5.35976 2.48783C5.28216 2.55235 5.21934 2.63891 5.177 2.73966C5.13466 2.8404 5.11414 2.95214 5.11732 3.06471C5.1205 3.17728 5.14726 3.28713 5.19519 3.38427L6.61577 6.42645C6.68877 6.58333 6.81116 6.69929 6.95602 6.74882C7.10088 6.79834 7.25634 6.77737 7.38821 6.69053C7.52008 6.60368 7.61754 6.45807 7.65917 6.28572C7.7008 6.11338 7.68317 5.92842 7.61018 5.77153L6.18959 2.72935C6.13648 2.60818 6.05376 2.509 5.95232 2.44489C5.85088 2.38077 5.73549 2.35473 5.62136 2.37021ZM23.2543 2.37021C23.1612 2.38191 23.0719 2.42082 22.9945 2.48348C22.917 2.54614 22.8538 2.6306 22.8104 2.72935L21.3898 5.77153C21.3168 5.92842 21.2992 6.11338 21.3408 6.28572C21.3825 6.45807 21.4799 6.60368 21.6118 6.69053C21.7437 6.77737 21.8991 6.79834 22.044 6.74882C22.1888 6.69929 22.3112 6.58333 22.3842 6.42645L23.8048 3.38427C23.858 3.2763 23.8849 3.1529 23.8826 3.02781C23.8803 2.90271 23.8489 2.78082 23.7918 2.67571C23.7348 2.5706 23.6543 2.48639 23.5594 2.43245C23.4645 2.37852 23.3589 2.35697 23.2543 2.37021ZM14.5 7.45107C9.42845 7.45107 4.92395 10.3416 2.1143 14.8136C2.04012 14.9308 2 15.0735 2 15.2203C2 15.367 2.04012 15.5097 2.1143 15.6269C4.92395 20.099 9.42845 23 14.5 23C19.5716 23 24.076 20.099 26.8857 15.6269C26.9599 15.5097 27 15.367 27 15.2203C27 15.0735 26.9599 14.9308 26.8857 14.8136C24.076 10.3416 19.5716 7.45107 14.5 7.45107ZM14.5 8.80315C15.7951 8.80315 17.0473 9.0125 18.2379 9.39469C18.8213 10.3212 19.1613 11.4617 19.1613 12.7115C19.1613 15.7843 17.0829 18.2677 14.5 18.2677C11.9171 18.2677 9.83871 15.7843 9.83871 12.7115C9.83871 11.4617 10.1787 10.3212 10.7621 9.39469C11.9527 9.0125 13.2049 8.80315 14.5 8.80315ZM14.5 9.81721C13.0945 9.81721 11.943 11.1872 11.943 12.8594C11.943 14.5315 13.0945 15.9016 14.5 15.9016C15.9055 15.9016 17.057 14.5315 17.057 12.8594C17.057 11.1872 15.9055 9.81721 14.5 9.81721ZM9.15506 10.039C8.86464 10.8631 8.70225 11.7637 8.70225 12.7115C8.70225 16.515 11.3029 19.6198 14.5 19.6198C17.6971 19.6198 20.2978 16.515 20.2978 12.7115C20.2978 11.7637 20.1354 10.8631 19.8449 10.039C22.1561 11.1485 24.1704 12.9481 25.696 15.2255C23.0807 19.1271 19.0465 21.6479 14.5 21.6479C9.95349 21.6479 5.91932 19.1271 3.30404 15.2255C4.82957 12.9481 6.84393 11.1485 9.15506 10.039ZM14.5 11.1693C15.2913 11.1693 15.9206 11.918 15.9206 12.8594C15.9206 13.8008 15.2913 14.5495 14.5 14.5495C13.7087 14.5495 13.0794 13.8008 13.0794 12.8594C13.0794 11.918 13.7087 11.1693 14.5 11.1693Z" fill="#386CD1"/>
</g>
<defs>
<filter id="filter0_d" x="0.826858" y="0" width="27.3463" height="25.3463" filterUnits="userSpaceOnUse" color-interpolation-filters="sRGB">
<feFlood flood-opacity="0" result="BackgroundImageFix"/>
<feColorMatrix in="SourceAlpha" type="matrix" values="0 0 0 0 0 0 0 0 0 0 0 0 0 0 0 0 0 0 127 0" result="hardAlpha"/>
<feOffset dy="1.17314"/>
<feGaussianBlur stdDeviation="0.586571"/>
<feComposite in2="hardAlpha" operator="out"/>
<feColorMatrix type="matrix" values="0 0 0 0 0 0 0 0 0 0 0 0 0 0 0 0 0 0 0.25 0"/>
<feBlend mode="normal" in2="BackgroundImageFix" result="effect1_dropShadow"/>
<feBlend mode="normal" in="SourceGraphic" in2="effect1_dropShadow" result="shape"/>
</filter>
</defs>
</svg>
