<svg width="25" height="21" viewBox="0 0 25 21" fill="none" xmlns="http://www.w3.org/2000/svg">
<path d="M12.4378 0.00371179C12.2966 0.0205704 12.1663 0.0942836 12.0727 0.210323C11.979 0.326362 11.9287 0.47631 11.9318 0.630611V3.71688C11.9307 3.79868 11.9446 3.87988 11.9727 3.95579C12.0008 4.03169 12.0425 4.10077 12.0953 4.15902C12.1482 4.21727 12.2112 4.26353 12.2807 4.2951C12.3501 4.32667 12.4247 4.34293 12.5 4.34293C12.5753 4.34293 12.6499 4.32667 12.7193 4.2951C12.7888 4.26353 12.8518 4.21727 12.9047 4.15902C12.9575 4.10077 12.9992 4.03169 13.0273 3.95579C13.0554 3.87988 13.0693 3.79868 13.0682 3.71688V0.630611C13.07 0.542741 13.0544 0.45548 13.0226 0.374664C12.9908 0.293848 12.9435 0.221341 12.8838 0.161993C12.8241 0.102645 12.7535 0.0578234 12.6766 0.030527C12.5997 0.00323057 12.5183 -0.00591185 12.4378 0.00371179V0.00371179ZM3.62136 2.1641C3.52729 2.17567 3.43737 2.21259 3.35976 2.2715C3.28216 2.33041 3.21934 2.40944 3.177 2.50143C3.13466 2.59341 3.11414 2.69543 3.11732 2.79821C3.1205 2.901 3.14726 3.00129 3.19519 3.08998L4.61577 5.86763C4.68877 6.01087 4.81116 6.11675 4.95602 6.16196C5.10088 6.20718 5.25634 6.18804 5.38821 6.10874C5.52008 6.02945 5.61754 5.8965 5.65917 5.73914C5.7008 5.58178 5.68317 5.4129 5.61018 5.26966L4.18959 2.49202C4.13648 2.38138 4.05376 2.29083 3.95232 2.23229C3.85088 2.17375 3.73549 2.14998 3.62136 2.1641V2.1641ZM21.2543 2.1641C21.1612 2.17479 21.0719 2.21032 20.9945 2.26753C20.917 2.32474 20.8538 2.40185 20.8104 2.49202L19.3898 5.26966C19.3168 5.4129 19.2992 5.58178 19.3408 5.73914C19.3825 5.8965 19.4799 6.02945 19.6118 6.10874C19.7437 6.18804 19.8991 6.20718 20.044 6.16196C20.1888 6.11675 20.3112 6.01087 20.3842 5.86763L21.8048 3.08998C21.858 2.99141 21.8849 2.87874 21.8826 2.76452C21.8803 2.6503 21.8489 2.53901 21.7918 2.44304C21.7348 2.34707 21.6543 2.27018 21.5594 2.22094C21.4645 2.17169 21.3589 2.15201 21.2543 2.1641V2.1641ZM12.5 6.80315C7.42845 6.80315 2.92395 9.44233 0.114299 13.5254C0.0401184 13.6325 0 13.7628 0 13.8968C0 14.0307 0.0401184 14.1611 0.114299 14.2681C2.92395 18.3512 7.42845 21 12.5 21C17.5715 21 22.076 18.3512 24.8857 14.2681C24.9599 14.1611 25 14.0307 25 13.8968C25 13.7628 24.9599 13.6325 24.8857 13.5254C22.0761 9.44233 17.5716 6.80315 12.5 6.80315ZM12.5 8.03766C13.7951 8.03766 15.0473 8.22881 16.2379 8.57776C16.8213 9.42371 17.1613 10.4651 17.1613 11.6062C17.1613 14.4117 15.0829 16.6792 12.5 16.6792C9.91708 16.6792 7.83871 14.4117 7.83871 11.6062C7.83871 10.4651 8.17874 9.42371 8.76209 8.57776C9.9527 8.22881 11.2049 8.03766 12.5 8.03766ZM12.5 8.96354C11.0945 8.96354 9.94295 10.2144 9.94295 11.7412C9.94295 13.2679 11.0945 14.5188 12.5 14.5188C13.9055 14.5188 15.057 13.2679 15.057 11.7412C15.057 10.2144 13.9055 8.96354 12.5 8.96354ZM7.15506 9.16608C6.86464 9.91849 6.70225 10.7408 6.70225 11.6062C6.70225 15.0789 9.30293 17.9137 12.5 17.9137C15.6971 17.9137 18.2978 15.0789 18.2978 11.6062C18.2978 10.7408 18.1354 9.91849 17.8449 9.16608C20.1561 10.1791 22.1704 11.8222 23.696 13.9016C21.0807 17.4639 17.0465 19.7655 12.5 19.7655C7.95349 19.7655 3.91932 17.4639 1.30404 13.9016C2.82957 11.8222 4.84393 10.1791 7.15506 9.16608ZM12.5 10.1981C13.2913 10.1981 13.9206 10.8816 13.9206 11.7412C13.9206 12.6007 13.2913 13.2843 12.5 13.2843C11.7087 13.2843 11.0794 12.6007 11.0794 11.7412C11.0794 10.8816 11.7087 10.1981 12.5 10.1981Z" fill="#386CD1"/>
</svg>
