<svg width="184" height="25" viewBox="0 0 184 25" fill="none" xmlns="http://www.w3.org/2000/svg">
<path d="M53.326 16.7113C52.4673 16.7113 51.786 16.6226 51.282 16.4453C50.7873 16.268 50.4327 15.9973 50.218 15.6333C50.0033 15.26 49.896 14.77 49.896 14.1633V6.77129H51.94V10.4673C52.0613 10.1593 52.2853 9.94929 52.612 9.83729C52.9387 9.71596 53.4473 9.65529 54.138 9.65529C54.726 9.65529 55.1973 9.70196 55.552 9.79529C55.916 9.88862 56.1913 10.038 56.378 10.2433C56.5553 10.4486 56.6767 10.6773 56.742 10.9293C56.8073 11.172 56.84 11.508 56.84 11.9373V14.1633C56.84 15.078 56.5647 15.7313 56.014 16.1233C55.4633 16.5153 54.5673 16.7113 53.326 16.7113ZM53.354 15.4373C53.7553 15.4373 54.0587 15.4093 54.264 15.3533C54.4693 15.2973 54.6093 15.1993 54.684 15.0593C54.7587 14.9193 54.796 14.7093 54.796 14.4293V11.9233C54.796 11.6153 54.7633 11.396 54.698 11.2653C54.6327 11.1253 54.502 11.032 54.306 10.9853C54.11 10.9386 53.788 10.9153 53.34 10.9153C52.9573 10.9153 52.6633 10.948 52.458 11.0133C52.262 11.0786 52.1267 11.1813 52.052 11.3213C51.9773 11.4613 51.94 11.662 51.94 11.9233V14.4293C51.94 14.7093 51.9727 14.9193 52.038 15.0593C52.1127 15.1993 52.248 15.2973 52.444 15.3533C52.6493 15.4093 52.9527 15.4373 53.354 15.4373ZM60.3589 16.7113C59.7243 16.7113 59.2483 16.6553 58.9309 16.5433C58.6229 16.422 58.4036 16.212 58.2729 15.9133C58.1516 15.6053 58.0909 15.148 58.0909 14.5413C58.0909 14 58.1563 13.5753 58.2869 13.2673C58.4269 12.9593 58.6463 12.74 58.9449 12.6093C59.2529 12.4693 59.6729 12.3993 60.2049 12.3993H62.5009V11.9373C62.5009 11.648 62.4589 11.4333 62.3749 11.2933C62.3003 11.1533 62.1556 11.0553 61.9409 10.9993C61.7356 10.9433 61.4229 10.9153 61.0029 10.9153C60.4243 10.9153 59.6309 10.9713 58.6229 11.0833V9.79529C59.3603 9.70196 60.2236 9.65529 61.2129 9.65529C62.0809 9.65529 62.7483 9.72062 63.2149 9.85129C63.6909 9.98196 64.0316 10.206 64.2369 10.5233C64.4423 10.8406 64.5449 11.3026 64.5449 11.9093V16.5713H62.5429V15.9553C62.3843 16.226 62.1696 16.4173 61.8989 16.5293C61.6283 16.6506 61.1149 16.7113 60.3589 16.7113ZM61.1569 15.4373C61.5676 15.4373 61.8616 15.4233 62.0389 15.3953C62.1696 15.3766 62.2583 15.3486 62.3049 15.3113C62.3609 15.274 62.4076 15.2133 62.4449 15.1293C62.4823 15.064 62.5009 14.966 62.5009 14.8353V13.5193H61.1009C60.7836 13.5193 60.5596 13.5426 60.4289 13.5893C60.2983 13.6266 60.2096 13.7106 60.1629 13.8413C60.1163 13.9626 60.0929 14.182 60.0929 14.4993C60.0929 14.8073 60.1163 15.022 60.1629 15.1433C60.2096 15.2646 60.2983 15.344 60.4289 15.3813C60.5689 15.4186 60.8116 15.4373 61.1569 15.4373ZM69.6473 16.7113C69.2926 16.7113 69.0126 16.702 68.8073 16.6833C68.6019 16.674 68.3499 16.6506 68.0513 16.6133C67.7526 16.576 67.5053 16.5106 67.3093 16.4173C67.1226 16.324 66.9266 16.184 66.7213 15.9973C66.3386 15.68 66.1473 15.1386 66.1473 14.3733V12.1193C66.1473 11.5033 66.2873 10.99 66.5673 10.5793C66.6699 10.43 66.8193 10.2946 67.0153 10.1733C67.2206 10.0426 67.4259 9.93996 67.6313 9.86529C67.7993 9.80929 68.0233 9.76262 68.3033 9.72529C68.5833 9.68796 68.8306 9.66462 69.0453 9.65529H69.7873C70.3099 9.65529 70.9959 9.73929 71.8453 9.90729V11.2513C70.8839 11.0273 70.1466 10.9153 69.6333 10.9153C68.6906 10.9153 68.2193 11.2326 68.2193 11.8673V14.3593C68.2193 15.078 68.7373 15.4373 69.7733 15.4373C70.2773 15.4373 71.0006 15.3346 71.9433 15.1293V16.4733C71.0939 16.632 70.3286 16.7113 69.6473 16.7113ZM73.0972 6.77129H75.1412V16.5713H73.0972V6.77129ZM75.2252 12.7633L77.4512 9.79529H79.7892L77.4372 12.7493L79.9852 16.5713H77.6752L75.2252 12.7633ZM83.8843 6.77129H85.9283V10.6213C86.0589 9.97729 86.7729 9.65529 88.0703 9.65529C88.9383 9.65529 89.5449 9.81396 89.8903 10.1313C90.2449 10.4393 90.4223 10.9293 90.4223 11.6013V16.5713H88.3783V11.8393C88.3783 11.578 88.3503 11.3866 88.2943 11.2653C88.2476 11.1346 88.1496 11.046 88.0003 10.9993C87.8509 10.9433 87.6129 10.9153 87.2863 10.9153C86.8849 10.9153 86.5909 10.9386 86.4043 10.9853C86.2176 11.032 86.0916 11.1206 86.0263 11.2513C85.9609 11.3726 85.9283 11.5686 85.9283 11.8393V16.5713H83.8843V6.77129ZM95.4585 16.7113C95.0385 16.7113 94.6931 16.6973 94.4225 16.6693C94.1518 16.6413 93.8625 16.5853 93.5545 16.5013C93.2185 16.408 92.9478 16.2773 92.7425 16.1093C92.5371 15.932 92.3645 15.6846 92.2245 15.3673C92.0845 15.0593 92.0145 14.686 92.0145 14.2473V12.2453C92.0145 11.7973 92.0845 11.4053 92.2245 11.0693C92.3645 10.7333 92.5465 10.472 92.7705 10.2853C92.9665 10.1266 93.2231 9.99596 93.5405 9.89329C93.8671 9.78129 94.1845 9.71129 94.4925 9.68329C94.8471 9.66462 95.1691 9.65529 95.4585 9.65529C95.8878 9.65529 96.2285 9.66929 96.4805 9.69729C96.7418 9.71596 97.0265 9.77196 97.3345 9.86529C97.6705 9.96796 97.9411 10.108 98.1465 10.2853C98.3611 10.4626 98.5431 10.7146 98.6925 11.0413C98.8325 11.3773 98.9025 11.7786 98.9025 12.2453V14.2473C98.9025 14.6673 98.8325 15.036 98.6925 15.3533C98.5618 15.6706 98.3891 15.918 98.1745 16.0953C97.9878 16.254 97.7311 16.3846 97.4045 16.4873C97.0871 16.5806 96.7745 16.6413 96.4665 16.6693C96.1865 16.6973 95.8505 16.7113 95.4585 16.7113ZM95.4585 15.4373C95.8411 15.4373 96.1305 15.4093 96.3265 15.3533C96.5225 15.288 96.6578 15.19 96.7325 15.0593C96.8165 14.9286 96.8585 14.7373 96.8585 14.4853V11.9233C96.8585 11.55 96.7605 11.2886 96.5645 11.1393C96.3685 10.99 95.9998 10.9153 95.4585 10.9153C94.9171 10.9153 94.5485 10.99 94.3525 11.1393C94.1565 11.2886 94.0585 11.55 94.0585 11.9233V14.4853C94.0585 14.7373 94.0958 14.9286 94.1705 15.0593C94.2545 15.19 94.3945 15.288 94.5905 15.3533C94.7865 15.4093 95.0758 15.4373 95.4585 15.4373ZM100.496 9.79529H102.54V10.6213C102.67 9.97729 103.338 9.65529 104.542 9.65529C105.176 9.65529 105.657 9.73929 105.984 9.90729C106.31 10.066 106.53 10.318 106.642 10.6633C106.754 10.3086 106.968 10.052 107.286 9.89329C107.612 9.73462 108.102 9.65529 108.756 9.65529C109.344 9.65529 109.796 9.72529 110.114 9.86529C110.431 9.99596 110.65 10.2013 110.772 10.4813C110.902 10.7613 110.968 11.1346 110.968 11.6013V16.5713H108.924V11.8813C108.924 11.5826 108.905 11.3726 108.868 11.2513C108.83 11.1206 108.746 11.032 108.616 10.9853C108.494 10.9386 108.28 10.9153 107.972 10.9153C107.589 10.9153 107.314 10.9386 107.146 10.9853C106.987 11.032 106.88 11.1206 106.824 11.2513C106.777 11.3726 106.754 11.5826 106.754 11.8813V16.5713H104.71V11.8813C104.71 11.5826 104.691 11.3726 104.654 11.2513C104.616 11.1206 104.532 11.032 104.402 10.9853C104.28 10.9386 104.066 10.9153 103.758 10.9153C103.375 10.9153 103.1 10.9386 102.932 10.9853C102.773 11.032 102.666 11.1206 102.61 11.2513C102.563 11.3726 102.54 11.5826 102.54 11.8813V16.5713H100.496V9.79529ZM116.161 16.7113C113.763 16.7113 112.563 15.9786 112.563 14.5133V12.0773C112.563 11.228 112.834 10.612 113.375 10.2293C113.926 9.84662 114.771 9.65529 115.909 9.65529C116.983 9.65529 117.767 9.84196 118.261 10.2153C118.765 10.5793 119.017 11.2 119.017 12.0773V13.7293H114.621V14.3453C114.621 14.7373 114.761 15.0173 115.041 15.1853C115.321 15.3533 115.825 15.4373 116.553 15.4373C117.225 15.4373 117.981 15.3393 118.821 15.1433V16.4453C117.991 16.6226 117.104 16.7113 116.161 16.7113ZM117.071 12.5673V11.5873C117.071 11.3633 116.978 11.1953 116.791 11.0833C116.614 10.9713 116.311 10.9153 115.881 10.9153C115.387 10.9153 115.055 10.9713 114.887 11.0833C114.71 11.2046 114.621 11.3726 114.621 11.5873V12.5673H117.071Z" fill="#729CEF"/>
<path d="M14.8876 3.96484L6.7561 12.6419L14.8876 21.3191L16.2436 19.873L9.46627 12.6419L16.2436 5.41086L14.8876 3.96484Z" fill="#729CEF"/>
</svg>
