<svg width="147" height="121" viewBox="0 0 147 121" fill="none" xmlns="http://www.w3.org/2000/svg">
<g filter="url(#filter0_d)">
<path d="M22.0522 62.4509C22.0522 63.2004 21.8667 63.9063 21.4955 64.5685C21.1244 65.2308 20.5677 65.8093 19.8254 66.3042C19.0832 66.799 18.1553 67.192 17.0419 67.4831C15.9358 67.7669 14.6404 67.9088 13.1559 67.9088C11.6714 67.9088 10.3687 67.7669 9.24806 67.4831C8.13465 67.192 7.20681 66.799 6.46454 66.3042C5.72227 65.8093 5.16557 65.2308 4.79443 64.5685C4.4233 63.9063 4.23773 63.2004 4.23773 62.4509V52.5066H8.27656V60.9991C8.27656 61.5012 8.33841 61.9779 8.46213 62.4291C8.59311 62.873 8.83326 63.2623 9.18257 63.597C9.53915 63.9318 10.034 64.1974 10.6671 64.3939C11.3075 64.5904 12.1371 64.6886 13.1559 64.6886C14.1674 64.6886 14.9897 64.5904 15.6229 64.3939C16.256 64.1974 16.7472 63.9318 17.0965 63.597C17.4531 63.2623 17.6932 62.873 17.8169 62.4291C17.9406 61.9779 18.0025 61.5012 18.0025 60.9991V52.5066H22.0522V62.4509ZM40.8055 67.5049L30.6866 57.2004V67.5049H26.6369V52.5066H31.0359L41.1657 62.8548V52.5066H45.1936V67.5049H40.8055Z" fill="#232324"/>
</g>
<g filter="url(#filter1_d)">
<path d="M98.3511 15.4296C97.8695 15.4824 97.4253 15.7132 97.1059 16.0765C96.7865 16.4397 96.6151 16.9092 96.6255 17.3923V27.0548C96.6219 27.3109 96.6693 27.5651 96.765 27.8028C96.8608 28.0404 97.0029 28.2567 97.1832 28.4391C97.3634 28.6214 97.5783 28.7663 97.8151 28.8651C98.052 28.9639 98.3062 29.0148 98.563 29.0148C98.8197 29.0148 99.0739 28.9639 99.3108 28.8651C99.5477 28.7663 99.7625 28.6214 99.9428 28.4391C100.123 28.2567 100.265 28.0404 100.361 27.8028C100.457 27.5651 100.504 27.3109 100.5 27.0548V17.3923C100.506 17.1172 100.453 16.844 100.345 16.591C100.236 16.338 100.075 16.1109 99.8716 15.9251C99.6682 15.7393 99.4272 15.599 99.165 15.5135C98.9028 15.4281 98.6253 15.3995 98.3511 15.4296ZM68.2899 22.1934C67.9692 22.2296 67.6626 22.3452 67.398 22.5296C67.1334 22.714 66.9192 22.9615 66.7748 23.2495C66.6305 23.5374 66.5605 23.8568 66.5713 24.1786C66.5822 24.5004 66.6734 24.8144 66.8368 25.0921L71.6805 33.7884C71.9294 34.2369 72.3467 34.5683 72.8407 34.7099C73.3346 34.8515 73.8647 34.7915 74.3143 34.5433C74.7639 34.295 75.0962 33.8788 75.2382 33.3861C75.3801 32.8935 75.32 32.3647 75.0711 31.9163L70.2274 23.22C70.0463 22.8736 69.7643 22.5901 69.4184 22.4068C69.0725 22.2236 68.6791 22.1491 68.2899 22.1934ZM128.412 22.1934C128.095 22.2268 127.79 22.3381 127.526 22.5172C127.262 22.6963 127.046 22.9377 126.899 23.22L122.055 31.9163C121.806 32.3647 121.746 32.8935 121.888 33.3861C122.03 33.8788 122.362 34.295 122.812 34.5433C123.261 34.7915 123.791 34.8515 124.285 34.7099C124.779 34.5683 125.197 34.2369 125.445 33.7884L130.289 25.0921C130.47 24.7835 130.562 24.4307 130.554 24.0732C130.547 23.7156 130.439 23.3671 130.245 23.0667C130.05 22.7662 129.776 22.5255 129.452 22.3713C129.129 22.2171 128.769 22.1555 128.412 22.1934ZM98.563 36.7173C81.2708 36.7173 65.912 44.9801 56.3321 57.7635C56.0792 58.0986 55.9424 58.5066 55.9424 58.9261C55.9424 59.3455 56.0792 59.7535 56.3321 60.0886C65.912 72.8722 81.2708 81.165 98.563 81.165C115.855 81.165 131.214 72.8722 140.794 60.0886C141.047 59.7535 141.184 59.3455 141.184 58.9261C141.184 58.5066 141.047 58.0986 140.794 57.7635C131.214 44.9801 115.855 36.7173 98.563 36.7173ZM98.563 40.5824C102.979 40.5824 107.248 41.1808 111.308 42.2733C113.297 44.9218 114.456 48.1821 114.456 51.7547C114.456 60.5383 107.37 67.6374 98.563 67.6374C89.7561 67.6374 82.6696 60.5383 82.6696 51.7547C82.6696 48.1821 83.829 44.9218 85.818 42.2733C89.8776 41.1808 94.1473 40.5824 98.563 40.5824ZM98.563 43.4811C93.7707 43.4811 89.8443 47.3974 89.8443 52.1774C89.8443 56.9573 93.7707 60.8737 98.563 60.8737C103.355 60.8737 107.282 56.9573 107.282 52.1774C107.282 47.3974 103.355 43.4811 98.563 43.4811ZM80.3386 44.1152C79.3484 46.4709 78.7947 49.0453 78.7947 51.7547C78.7947 62.6271 87.6621 71.5024 98.563 71.5024C109.464 71.5024 118.331 62.6271 118.331 51.7547C118.331 49.0453 117.778 46.4709 116.787 44.1152C124.667 47.2867 131.536 52.4309 136.737 58.9412C127.82 70.0941 114.065 77.2999 98.563 77.2999C83.061 77.2999 69.3059 70.0941 60.3887 58.9412C65.5902 52.4309 72.4585 47.2867 80.3386 44.1152ZM98.563 47.3461C101.261 47.3461 103.407 49.4863 103.407 52.1774C103.407 54.8685 101.261 57.0086 98.563 57.0086C95.8649 57.0086 93.7193 54.8685 93.7193 52.1774C93.7193 49.4863 95.8649 47.3461 98.563 47.3461Z" fill="#232324"/>
</g>
<defs>
<filter id="filter0_d" x="0.237793" y="52.5068" width="48.9558" height="23.4023" filterUnits="userSpaceOnUse" color-interpolation-filters="sRGB">
<feFlood flood-opacity="0" result="BackgroundImageFix"/>
<feColorMatrix in="SourceAlpha" type="matrix" values="0 0 0 0 0 0 0 0 0 0 0 0 0 0 0 0 0 0 127 0" result="hardAlpha"/>
<feOffset dy="4"/>
<feGaussianBlur stdDeviation="2"/>
<feComposite in2="hardAlpha" operator="out"/>
<feColorMatrix type="matrix" values="0 0 0 0 0 0 0 0 0 0 0 0 0 0 0 0 0 0 0.25 0"/>
<feBlend mode="normal" in2="BackgroundImageFix" result="effect1_dropShadow"/>
<feBlend mode="normal" in="SourceGraphic" in2="effect1_dropShadow" result="shape"/>
</filter>
<filter id="filter1_d" x="51.9424" y="15.418" width="93.2412" height="73.7471" filterUnits="userSpaceOnUse" color-interpolation-filters="sRGB">
<feFlood flood-opacity="0" result="BackgroundImageFix"/>
<feColorMatrix in="SourceAlpha" type="matrix" values="0 0 0 0 0 0 0 0 0 0 0 0 0 0 0 0 0 0 127 0" result="hardAlpha"/>
<feOffset dy="4"/>
<feGaussianBlur stdDeviation="2"/>
<feComposite in2="hardAlpha" operator="out"/>
<feColorMatrix type="matrix" values="0 0 0 0 0 0 0 0 0 0 0 0 0 0 0 0 0 0 0.25 0"/>
<feBlend mode="normal" in2="BackgroundImageFix" result="effect1_dropShadow"/>
<feBlend mode="normal" in="SourceGraphic" in2="effect1_dropShadow" result="shape"/>
</filter>
</defs>
</svg>
