<svg width="147" height="121" viewBox="0 0 147 121" fill="none" xmlns="http://www.w3.org/2000/svg">
<g filter="url(#filter0_d)">
<path d="M22.0522 62.4514C22.0522 63.2009 21.8667 63.9068 21.4955 64.569C21.1244 65.2313 20.5677 65.8098 19.8254 66.3046C19.0832 66.7995 18.1553 67.1925 17.0419 67.4835C15.9358 67.7673 14.6404 67.9093 13.1559 67.9093C11.6714 67.9093 10.3687 67.7673 9.24806 67.4835C8.13465 67.1925 7.20681 66.7995 6.46454 66.3046C5.72227 65.8098 5.16557 65.2313 4.79443 64.569C4.4233 63.9068 4.23773 63.2009 4.23773 62.4514V52.5071H8.27656V60.9996C8.27656 61.5017 8.33841 61.9784 8.46213 62.4295C8.59311 62.8735 8.83326 63.2628 9.18257 63.5975C9.53915 63.9323 10.034 64.1979 10.6671 64.3944C11.3075 64.5909 12.1371 64.6891 13.1559 64.6891C14.1674 64.6891 14.9897 64.5909 15.6229 64.3944C16.256 64.1979 16.7472 63.9323 17.0965 63.5975C17.4531 63.2628 17.6932 62.8735 17.8169 62.4295C17.9406 61.9784 18.0025 61.5017 18.0025 60.9996V52.5071H22.0522V62.4514ZM40.8055 67.5054L30.6866 57.2009V67.5054H26.6369V52.5071H31.0359L41.1657 62.8553V52.5071H45.1936V67.5054H40.8055Z" fill="#F2F2F3"/>
</g>
<g filter="url(#filter1_d)">
<path d="M98.3512 15.4301C97.8696 15.4829 97.4254 15.7136 97.106 16.0769C96.7866 16.4402 96.6152 16.9097 96.6256 17.3928V27.0553C96.622 27.3114 96.6694 27.5656 96.7652 27.8033C96.8609 28.0409 97.003 28.2572 97.1833 28.4396C97.3636 28.6219 97.5784 28.7667 97.8152 28.8656C98.0521 28.9644 98.3063 29.0153 98.5631 29.0153C98.8199 29.0153 99.0741 28.9644 99.3109 28.8656C99.5478 28.7667 99.7626 28.6219 99.9429 28.4396C100.123 28.2572 100.265 28.0409 100.361 27.8033C100.457 27.5656 100.504 27.3114 100.501 27.0553V17.3928C100.507 17.1177 100.453 16.8445 100.345 16.5915C100.237 16.3384 100.075 16.1114 99.8718 15.9256C99.6683 15.7398 99.4274 15.5995 99.1651 15.514C98.9029 15.4286 98.6254 15.3999 98.3512 15.4301ZM68.2901 22.1938C67.9693 22.2301 67.6627 22.3456 67.3981 22.5301C67.1335 22.7145 66.9193 22.962 66.7749 23.2499C66.6306 23.5379 66.5606 23.8573 66.5715 24.1791C66.5823 24.5009 66.6736 24.8149 66.837 25.0926L71.6806 33.7889C71.9295 34.2373 72.3469 34.5688 72.8408 34.7104C73.3347 34.852 73.8648 34.792 74.3144 34.5438C74.764 34.2955 75.0963 33.8793 75.2383 33.3866C75.3802 32.8939 75.3201 32.3652 75.0712 31.9168L70.2275 23.2205C70.0465 22.8741 69.7644 22.5906 69.4185 22.4073C69.0726 22.224 68.6792 22.1496 68.2901 22.1938ZM128.412 22.1938C128.095 22.2273 127.79 22.3385 127.526 22.5177C127.262 22.6968 127.047 22.9382 126.899 23.2205L122.055 31.9168C121.806 32.3652 121.746 32.8939 121.888 33.3866C122.03 33.8793 122.362 34.2955 122.812 34.5438C123.261 34.792 123.791 34.852 124.285 34.7104C124.779 34.5688 125.197 34.2373 125.446 33.7889L130.289 25.0926C130.47 24.784 130.562 24.4312 130.555 24.0736C130.547 23.716 130.44 23.3676 130.245 23.0672C130.05 22.7667 129.776 22.526 129.453 22.3718C129.129 22.2176 128.769 22.156 128.412 22.1938ZM98.5631 36.7178C81.2709 36.7178 65.9121 44.9806 56.3322 57.764C56.0793 58.0991 55.9425 58.5071 55.9425 58.9265C55.9425 59.346 56.0793 59.754 56.3322 60.0891C65.9121 72.8727 81.2709 81.1655 98.5631 81.1655C115.855 81.1655 131.214 72.8727 140.794 60.0891C141.047 59.754 141.184 59.346 141.184 58.9265C141.184 58.5071 141.047 58.0991 140.794 57.764C131.214 44.9806 115.855 36.7178 98.5631 36.7178ZM98.5631 40.5828C102.979 40.5828 107.248 41.1813 111.308 42.2738C113.297 44.9223 114.456 48.1826 114.456 51.7551C114.456 60.5388 107.37 67.6379 98.5631 67.6379C89.7563 67.6379 82.6698 60.5388 82.6698 51.7551C82.6698 48.1826 83.8291 44.9223 85.8181 42.2738C89.8777 41.1813 94.1474 40.5828 98.5631 40.5828ZM98.5631 43.4816C93.7709 43.4816 89.8445 47.3979 89.8445 52.1779C89.8445 56.9578 93.7709 60.8741 98.5631 60.8741C103.355 60.8741 107.282 56.9578 107.282 52.1779C107.282 47.3979 103.355 43.4816 98.5631 43.4816ZM80.3387 44.1157C79.3485 46.4714 78.7948 49.0457 78.7948 51.7551C78.7948 62.6276 87.6622 71.5029 98.5631 71.5029C109.464 71.5029 118.331 62.6276 118.331 51.7551C118.331 49.0457 117.778 46.4714 116.787 44.1157C124.668 47.2872 131.536 52.4314 136.737 58.9416C127.82 70.0946 114.065 77.3004 98.5631 77.3004C83.0611 77.3004 69.306 70.0946 60.3888 58.9416C65.5903 52.4314 72.4586 47.2872 80.3387 44.1157ZM98.5631 47.3466C101.261 47.3466 103.407 49.4868 103.407 52.1779C103.407 54.869 101.261 57.0091 98.5631 57.0091C95.865 57.0091 93.7194 54.869 93.7194 52.1779C93.7194 49.4868 95.8651 47.3466 98.5631 47.3466Z" fill="#F2F2F3"/>
</g>
<defs>
<filter id="filter0_d" x="0.237671" y="52.5073" width="48.9559" height="23.4019" filterUnits="userSpaceOnUse" color-interpolation-filters="sRGB">
<feFlood flood-opacity="0" result="BackgroundImageFix"/>
<feColorMatrix in="SourceAlpha" type="matrix" values="0 0 0 0 0 0 0 0 0 0 0 0 0 0 0 0 0 0 127 0" result="hardAlpha"/>
<feOffset dy="4"/>
<feGaussianBlur stdDeviation="2"/>
<feComposite in2="hardAlpha" operator="out"/>
<feColorMatrix type="matrix" values="0 0 0 0 0 0 0 0 0 0 0 0 0 0 0 0 0 0 0.25 0"/>
<feBlend mode="normal" in2="BackgroundImageFix" result="effect1_dropShadow"/>
<feBlend mode="normal" in="SourceGraphic" in2="effect1_dropShadow" result="shape"/>
</filter>
<filter id="filter1_d" x="51.9425" y="15.4185" width="93.2412" height="73.7471" filterUnits="userSpaceOnUse" color-interpolation-filters="sRGB">
<feFlood flood-opacity="0" result="BackgroundImageFix"/>
<feColorMatrix in="SourceAlpha" type="matrix" values="0 0 0 0 0 0 0 0 0 0 0 0 0 0 0 0 0 0 127 0" result="hardAlpha"/>
<feOffset dy="4"/>
<feGaussianBlur stdDeviation="2"/>
<feComposite in2="hardAlpha" operator="out"/>
<feColorMatrix type="matrix" values="0 0 0 0 0 0 0 0 0 0 0 0 0 0 0 0 0 0 0.25 0"/>
<feBlend mode="normal" in2="BackgroundImageFix" result="effect1_dropShadow"/>
<feBlend mode="normal" in="SourceGraphic" in2="effect1_dropShadow" result="shape"/>
</filter>
</defs>
</svg>
